<svg xmlns="http://www.w3.org/2000/svg" xmlns:xlink="http://www.w3.org/1999/xlink" viewBox="0,0,256,256"
      width="50px" height="50px">
      <g fill="#ffffff" fill-rule="nonzero" stroke="none" stroke-width="1" stroke-linecap="butt" stroke-linejoin="miter"
        stroke-miterlimit="10" stroke-dasharray="" stroke-dashoffset="0" font-family="none" font-weight="none"
        font-size="none" text-anchor="none" style="mix-blend-mode: normal">
        <g transform="scale(5.12,5.12)">
          <path
            d="M1,0c-0.25575,0 -0.51153,0.09747 -0.70703,0.29297c-0.391,0.391 -0.391,1.02306 0,1.41406l48,48c0.195,0.195 0.45103,0.29297 0.70703,0.29297c0.256,0 0.51203,-0.09797 0.70703,-0.29297c0.391,-0.391 0.391,-1.02306 0,-1.41406l-4.4082,-4.4082l-1.54883,-5.31445c2.747,-2.256 4.25,-5.27531 4.25,-8.57031c0,-6.108 -5.35305,-11.15448 -12.24805,-11.89648c-1.345,-6.95 -8.38195,-12.10352 -16.75195,-12.10352c-3.407,0 -6.56847,0.87547 -9.23047,2.35547l-8.0625,-8.0625c-0.1955,-0.1955 -0.45128,-0.29297 -0.70703,-0.29297zM19,8c7.219,0 13.31513,4.23363 14.70313,10.01563c-4.062,0.074 -7.6835,1.64394 -10.1875,4.08594l-12.2793,-12.28125c2.266,-1.151 4.91967,-1.82031 7.76367,-1.82031zM6.48047,10.72461c-2.772,2.581 -4.48047,6.00639 -4.48047,9.77539c0,4.269 2.05941,8.10867 5.81641,10.88867l-2.63867,7.91406l8.25,-5.10352c2.296,0.722 5.09106,0.97283 7.78906,0.67383c2.185,4.193 7.0882,7.12695 12.7832,7.12695c1.158,0 2.2972,-0.12261 3.4082,-0.34961l-1.75195,-1.75195c-0.547,0.06 -1.09725,0.10156 -1.65625,0.10156c-6.617,0 -12,-4.486 -12,-10c0,-1.098 0.22123,-2.15358 0.61523,-3.14258l-1.51562,-1.51562c-0.707,1.433 -1.09961,3.0072 -1.09961,4.6582c0,1.014 0.16341,1.99259 0.44141,2.93359c-2.409,0.191 -4.85659,-0.08939 -6.80859,-0.77539l-0.45117,-0.16016l-4.35938,2.69922l1.36719,-4.10156l-0.62891,-0.42383c-3.585,-2.424 -5.56055,-5.85888 -5.56055,-9.67187c0,-3.22 1.48067,-6.14919 3.88867,-8.36719zM24,14c-1.10457,0 -2,0.89543 -2,2c0,1.10457 0.89543,2 2,2c1.10457,0 2,-0.89543 2,-2c0,-1.10457 -0.89543,-2 -2,-2zM34,20c6.617,0 12,4.486 12,10c0,2.861 -1.41814,5.48748 -3.99414,7.39648l-0.56055,0.41406l0.91016,3.12305l-0.02148,-0.01172l-12.11914,-12.12305c0.459,-0.262 0.78516,-0.75383 0.78516,-1.29883c0,-0.801 -0.699,-1.5 -1.5,-1.5c-0.545,0 -1.03683,0.32616 -1.29883,0.78516l-3.2832,-3.2832c2.201,-2.136 5.44603,-3.50195 9.08203,-3.50195zM38.5,26c-0.82843,0 -1.5,0.67157 -1.5,1.5c0,0.82843 0.67157,1.5 1.5,1.5c0.82843,0 1.5,-0.67157 1.5,-1.5c0,-0.82843 -0.67157,-1.5 -1.5,-1.5z">
          </path>
        </g>
      </g>
    </svg>