		<svg xmlns="http://www.w3.org/2000/svg" xmlns:xlink="http://www.w3.org/1999/xlink" viewBox="0,0,256,256" width="50px" height="50px"><g fill="#ffffff" fill-rule="evenodd" stroke="none" stroke-width="1" stroke-linecap="butt" stroke-linejoin="miter" stroke-miterlimit="10" stroke-dasharray="" stroke-dashoffset="0" font-family="none" font-weight="none" font-size="none" text-anchor="none" style="mix-blend-mode: normal"><g transform="scale(5.12,5.12)"><path d="M42.76953,6.23438l0.17188,0.46094l0.08203,0.23438l0.08203,0.22656l0.14844,0.46094l0.07031,0.23047l0.13281,0.45313l0.0625,0.22656l0.0625,0.22266l0.05859,0.22266l0.05469,0.22266l0.05078,0.21875l0.05078,0.22266l0.04688,0.21484l0.04688,0.21875l0.04297,0.21484l0.04297,0.21094l0.03906,0.21094l0.03516,0.21094l0.03516,0.20703l0.09375,0.60938l0.02344,0.19922l0.02734,0.19531l0.02344,0.19531l0.01953,0.19141l0.02344,0.1875l0.01563,0.1875l0.03125,0.36719l0.03516,0.52734l0.01563,0.33594l0.00781,0.16406l0.00391,0.16016l0.00391,0.15625l0.00391,0.15234v0.44141l-0.00781,0.27344l-0.00391,0.13281l-0.00781,0.25l-0.00781,0.12109l-0.01562,0.22656l-0.01562,0.21094l-0.01172,0.09766l-0.00781,0.09375l-0.01172,0.08984l-0.02344,0.16406l-0.01172,0.07422l-0.01172,0.07031l-0.01562,0.06641l0.10938,0.11719l0.10547,0.12109l0.10938,0.12109l0.10156,0.11719l0.10156,0.12109l0.10156,0.125l0.10156,0.12109l0.19531,0.25l0.09375,0.125l0.09766,0.12891l0.08984,0.125l0.09375,0.12891l0.08984,0.12891l0.08594,0.13281l0.08594,0.12891l0.17188,0.26563l0.08203,0.13672l0.07813,0.13281l0.08203,0.13672l0.07813,0.13672l0.07422,0.13672l0.14844,0.28125l0.07031,0.14063l0.07031,0.14453l0.06641,0.14063l0.06641,0.14453l0.06641,0.14844l0.0625,0.14453l0.0625,0.15234l0.05859,0.14844l0.05469,0.14844l0.05859,0.15234l0.05469,0.15234l0.15234,0.46875l0.04688,0.15625l0.04688,0.16016l0.04297,0.16016l0.03906,0.16406l0.04297,0.16406l0.03906,0.16406l0.03516,0.16406l0.03516,0.16797l0.03125,0.16797l0.03125,0.17188l0.05469,0.34375l0.02734,0.17578l0.02344,0.17578l0.01953,0.17578l0.01953,0.17969l0.01563,0.17969l0.03125,0.36719l0.00781,0.18359l0.01172,0.1875l0.00781,0.1875l0.00391,0.1875l0.00391,0.19531v0.39844l-0.00391,0.21094l-0.00391,0.20703l-0.00781,0.40625l-0.00781,0.20313l-0.00781,0.19922l-0.01172,0.19922l-0.03516,0.58594l-0.01953,0.19141l-0.01562,0.19141l-0.01562,0.1875l-0.01953,0.19141l-0.01953,0.18359l-0.02344,0.1875l-0.01953,0.17969l-0.02344,0.18359l-0.02734,0.17969l-0.02344,0.17969l-0.02734,0.17578l-0.03125,0.17578l-0.02734,0.17578l-0.0625,0.34375l-0.03516,0.16797l-0.03125,0.16797l-0.03516,0.16797l-0.03516,0.16406l-0.07812,0.32813l-0.07812,0.32031l-0.04297,0.16016l-0.08594,0.3125l-0.04297,0.15234l-0.14062,0.45703l-0.05078,0.14844l-0.04687,0.14844l-0.10156,0.28906l-0.05469,0.14453l-0.05469,0.14063l-0.05078,0.14063l-0.05469,0.14063l-0.17578,0.41016l-0.05469,0.13281l-0.0625,0.13281l-0.05859,0.13281l-0.1875,0.38672l-0.0625,0.125l-0.13281,0.25l-0.06641,0.12109l-0.06641,0.125l-0.06641,0.11719l-0.07031,0.12109l-0.14062,0.23438l-0.07031,0.11328l-0.07031,0.11719l-0.07422,0.11328l-0.07031,0.10938l-0.07422,0.11328l-0.07422,0.10938l-0.07422,0.10547l-0.07812,0.10938l-0.07422,0.10547l-0.07812,0.10547l-0.07812,0.10156l-0.07812,0.10547l-0.07812,0.10156l-0.08203,0.09766l-0.07812,0.10156l-0.16406,0.19531l-0.08203,0.09375l-0.08203,0.09766l-0.08203,0.09375l-0.08594,0.09375l-0.08203,0.08984l-0.25781,0.26953l-0.25781,0.25781l-0.08984,0.08203l-0.08984,0.08594l-0.08594,0.08203l-0.08984,0.08203l-0.08984,0.07813l-0.08984,0.08203l-0.08984,0.07813l-0.09375,0.07422l-0.08984,0.07813l-0.09375,0.07422l-0.08984,0.07422l-0.1875,0.14844l-0.09375,0.07031l-0.08984,0.07031l-0.09375,0.07031l-0.09766,0.07031l-0.28125,0.19922l-0.09766,0.06641l-0.09375,0.0625l-0.19531,0.125l-0.09375,0.0625l-0.09766,0.05859l-0.09766,0.0625l-0.19531,0.11719l-0.09766,0.05469l-0.09766,0.05859l-0.29297,0.16406l-0.10156,0.05469l-0.29297,0.15234l-0.10156,0.05078l-0.19922,0.09766l-0.19922,0.09375l-0.39844,0.17969l-0.19922,0.08594l-0.19922,0.08203l-0.19922,0.07813l-0.20312,0.07813l-0.19922,0.07422l-0.39844,0.14063l-0.19922,0.06641l-0.19531,0.0625l-0.19922,0.0625l-0.19922,0.05859l-0.39062,0.10938l-0.39062,0.10156l-0.19141,0.04688l-0.19531,0.04297l-0.1875,0.04297l-0.19141,0.04297l-0.1875,0.03906l-0.19141,0.03516l-0.36719,0.07031l-0.36719,0.0625l-0.17969,0.02734l-0.17578,0.02344l-0.17578,0.02734l-0.17578,0.02344l-0.34375,0.03906l-0.16797,0.01953l-0.16406,0.01953l-0.16406,0.01563l-0.16016,0.01563l-0.16016,0.01172l-0.15625,0.01172l-0.15234,0.01563l-0.15234,0.00781l-0.14844,0.01172l-0.14453,0.00781l-0.28125,0.01172l-0.26953,0.01172l-0.25781,0.00781l-0.24219,0.00781l-0.23047,0.00391h-0.21484l-0.20312,0.00391h-1.99609l-2.51953,0.00391l-2.51953,-0.00391h-1.99609l-0.20312,-0.00391h-0.21484l-0.23047,-0.00391l-0.24219,-0.00781l-0.25781,-0.00781l-0.26953,-0.01172l-0.28125,-0.01172l-0.14453,-0.00781l-0.14844,-0.01172l-0.15234,-0.00781l-0.15234,-0.01562l-0.15625,-0.01172l-0.16016,-0.01172l-0.16016,-0.01562l-0.16406,-0.01562l-0.16406,-0.01953l-0.16797,-0.01953l-0.34375,-0.03906l-0.17578,-0.02344l-0.17578,-0.02734l-0.17578,-0.02344l-0.17969,-0.02734l-0.36719,-0.0625l-0.36719,-0.07031l-0.19141,-0.03516l-0.1875,-0.03906l-0.19141,-0.04297l-0.1875,-0.04297l-0.19531,-0.04297l-0.19141,-0.04687l-0.39062,-0.10156l-0.39062,-0.10937l-0.19922,-0.05859l-0.19922,-0.0625l-0.19531,-0.0625l-0.19922,-0.06641l-0.39844,-0.14062l-0.19922,-0.07422l-0.20312,-0.07812l-0.19922,-0.07812l-0.19922,-0.08203l-0.19922,-0.08594l-0.39844,-0.17969l-0.19922,-0.09375l-0.19922,-0.09766l-0.10156,-0.05078l-0.29297,-0.15234l-0.10156,-0.05469l-0.29297,-0.16406l-0.09766,-0.05859l-0.09766,-0.05469l-0.19531,-0.11719l-0.09766,-0.0625l-0.09766,-0.05859l-0.09375,-0.0625l-0.19531,-0.125l-0.09375,-0.0625l-0.09766,-0.06641l-0.28125,-0.19922l-0.09766,-0.07031l-0.09375,-0.07031l-0.08984,-0.07031l-0.09375,-0.07031l-0.1875,-0.14844l-0.08984,-0.07422l-0.09375,-0.07422l-0.08984,-0.07812l-0.09375,-0.07422l-0.08984,-0.07812l-0.08984,-0.08203l-0.08984,-0.07812l-0.08984,-0.08203l-0.08594,-0.08203l-0.08984,-0.08594l-0.08984,-0.08203l-0.25781,-0.25781l-0.25781,-0.26953l-0.08203,-0.08984l-0.08594,-0.09375l-0.08203,-0.09375l-0.08203,-0.09766l-0.08203,-0.09375l-0.16406,-0.19531l-0.07812,-0.10156l-0.08203,-0.09766l-0.07812,-0.10156l-0.07812,-0.10547l-0.07812,-0.10156l-0.07812,-0.10547l-0.07422,-0.10547l-0.07812,-0.10937l-0.07422,-0.10547l-0.07422,-0.10937l-0.07422,-0.11328l-0.07031,-0.10937l-0.07422,-0.11328l-0.07031,-0.11719l-0.07031,-0.11328l-0.14062,-0.23437l-0.07031,-0.12109l-0.06641,-0.11719l-0.06641,-0.125l-0.06641,-0.12109l-0.13281,-0.25l-0.0625,-0.125l-0.1875,-0.38672l-0.05859,-0.13281l-0.0625,-0.13281l-0.05469,-0.13281l-0.17578,-0.41016l-0.05469,-0.14062l-0.05078,-0.14062l-0.05469,-0.14062l-0.05469,-0.14453l-0.10156,-0.28906l-0.04687,-0.14844l-0.05078,-0.14844l-0.14062,-0.45703l-0.04297,-0.15234l-0.08594,-0.3125l-0.04297,-0.16016l-0.07812,-0.32031l-0.07812,-0.32812l-0.03516,-0.16406l-0.03516,-0.16797l-0.03125,-0.16797l-0.03516,-0.16797l-0.0625,-0.34375l-0.02734,-0.17578l-0.03125,-0.17578l-0.02734,-0.17578l-0.02344,-0.17969l-0.02734,-0.17969l-0.02344,-0.18359l-0.01953,-0.17969l-0.02344,-0.1875l-0.01953,-0.18359l-0.01953,-0.19141l-0.01562,-0.1875l-0.01562,-0.19141l-0.01953,-0.19141l-0.03516,-0.58594l-0.01172,-0.19922l-0.00781,-0.19922l-0.00781,-0.20312l-0.00781,-0.40625l-0.00391,-0.20703l-0.00391,-0.21094v-0.39844l0.00391,-0.19531l0.00391,-0.1875l0.00781,-0.1875l0.01172,-0.1875l0.00781,-0.18359l0.03125,-0.36719l0.01563,-0.17969l0.01953,-0.17969l0.01953,-0.17578l0.02344,-0.17578l0.02734,-0.17578l0.05469,-0.34375l0.03125,-0.17187l0.03125,-0.16797l0.03516,-0.16797l0.03516,-0.16406l0.03906,-0.16406l0.04297,-0.16406l0.03906,-0.16406l0.04297,-0.16016l0.04688,-0.16016l0.04688,-0.15625l0.15234,-0.46875l0.05469,-0.15234l0.05859,-0.15234l0.05469,-0.14844l0.05859,-0.15234l0.0625,-0.14844l0.0625,-0.14453l0.06641,-0.14844l0.06641,-0.14453l0.06641,-0.14062l0.07031,-0.14453l0.07031,-0.14062l0.14844,-0.28125l0.07422,-0.13672l0.07813,-0.13672l0.08203,-0.13672l0.07813,-0.13281l0.08203,-0.13672l0.17188,-0.26562l0.08594,-0.12891l0.08594,-0.13281l0.08984,-0.12891l0.09375,-0.12891l0.08984,-0.125l0.09766,-0.12891l0.09375,-0.125l0.19531,-0.25l0.10156,-0.12109l0.10156,-0.125l0.10156,-0.12109l0.10156,-0.11719l0.10938,-0.12109l0.10547,-0.12109l0.10938,-0.11719l-0.01562,-0.07031l-0.01172,-0.07422l-0.01562,-0.08203l-0.01172,-0.08203l-0.01172,-0.08984l-0.01172,-0.09375l-0.01172,-0.09766l-0.00781,-0.10156l-0.01172,-0.10547l-0.00781,-0.10937l-0.00781,-0.11328l-0.00781,-0.11719l-0.00781,-0.12109l-0.00391,-0.125l-0.00781,-0.12891l-0.00391,-0.13281l-0.00391,-0.13672v-0.58203l0.00391,-0.15234l0.00391,-0.15625l0.00391,-0.16016l0.00781,-0.16406l0.00391,-0.16406l0.01172,-0.17187l0.00781,-0.16797l0.01172,-0.17578l0.03125,-0.35937l0.01563,-0.18359l0.01953,-0.18359l0.01953,-0.1875l0.01953,-0.19141l0.02344,-0.19141l0.02734,-0.19531l0.05469,-0.39844l0.03125,-0.19922l0.03516,-0.20312l0.07031,-0.41406l0.03906,-0.21094l0.08594,-0.42187l0.04688,-0.21484l0.04688,-0.21875l0.05078,-0.21484l0.05469,-0.21875l0.05469,-0.22266l0.05859,-0.22266l0.125,-0.44531l0.0625,-0.22656l0.14063,-0.45313l0.07422,-0.22656l0.15625,-0.46094l0.08203,-0.23047l0.17188,-0.46094l0.09375,-0.23437l0.05078,0.00781l0.06641,0.00781l0.08984,0.01563l0.11328,0.01953l0.14063,0.02734l0.16406,0.03125l0.1875,0.04297l0.10156,0.02344l0.10938,0.02344l0.11328,0.02734l0.12109,0.03125l0.125,0.03125l0.13281,0.03906l0.13281,0.03516l0.14453,0.04297l0.29688,0.08594l0.16016,0.05078l0.16406,0.05469l0.16797,0.05469l0.17188,0.05859l0.17969,0.05859l0.18359,0.06641l0.19141,0.06641l0.19141,0.07422l0.19922,0.07422l0.20313,0.08203l0.21094,0.08203l0.21094,0.08594l0.21875,0.08984l0.22266,0.09766l0.22656,0.09766l0.23438,0.10156l0.23438,0.10938l0.48438,0.22656l0.25,0.12109l0.25391,0.12891l0.52344,0.26172l0.26563,0.14063l0.26953,0.14453l0.27344,0.15234l0.28125,0.15625l0.28125,0.16016l0.28516,0.16406l0.29297,0.17188l0.29297,0.17578l0.29688,0.18359l0.30469,0.1875l0.30469,0.19141l0.15234,0.10156l0.15625,0.09766l0.15625,0.10156l0.3125,0.21094l0.16016,0.10547l0.15625,0.10938l0.16016,0.10938l0.14063,-0.03906l0.14063,-0.03516l0.15234,-0.03516l0.15234,-0.03125l0.16016,-0.03125l0.16406,-0.03125l0.16797,-0.03125l0.17188,-0.02734l0.35938,-0.05469l0.375,-0.04687l0.39063,-0.04687l0.19922,-0.01953l0.20313,-0.01562l0.20703,-0.01953l0.21094,-0.01562l0.21094,-0.01953l0.21094,-0.01172l0.21875,-0.01562l0.4375,-0.02344l0.21875,-0.00781l0.22266,-0.00781l0.22656,-0.00781l0.22266,-0.00781l0.45313,-0.00781l0.23047,-0.00391h0.22656l0.22656,-0.00391l0.22656,0.00391h0.22656l0.23047,0.00391l0.45313,0.00781l0.22266,0.00781l0.22656,0.00781l0.22266,0.00781l0.21875,0.00781l0.22266,0.01172l0.21484,0.01172l0.21875,0.01563l0.21094,0.01172l0.21094,0.01953l0.21094,0.01563l0.20703,0.01953l0.20313,0.01563l0.19922,0.01953l0.39063,0.04688l0.375,0.04688l0.35938,0.05469l0.17188,0.02734l0.16797,0.03125l0.16406,0.03125l0.16016,0.03125l0.15234,0.03516l0.15234,0.03125l0.14063,0.03516l0.13672,0.03906l0.16406,-0.10937l0.15625,-0.10937l0.16016,-0.10547l0.3125,-0.21094l0.15625,-0.10156l0.15625,-0.09766l0.15234,-0.10156l0.30469,-0.19141l0.30078,-0.1875l0.30078,-0.18359l0.29297,-0.17578l0.29297,-0.17187l0.28516,-0.16406l0.28125,-0.16016l0.28125,-0.15625l0.27344,-0.15234l0.26953,-0.14453l0.26563,-0.14062l0.52344,-0.26172l0.25391,-0.12891l0.25,-0.11719l0.24219,-0.11719l0.24219,-0.11328l0.46875,-0.21094l0.22656,-0.09766l0.22266,-0.09766l0.21875,-0.08984l0.21094,-0.08594l0.21094,-0.08203l0.20313,-0.08203l0.19922,-0.07422l0.19141,-0.07422l0.19141,-0.06641l0.18359,-0.06641l0.17969,-0.05859l0.17188,-0.05859l0.16797,-0.05469l0.16406,-0.05469l0.16016,-0.05078l0.15234,-0.04297l0.28906,-0.08594l0.13672,-0.03516l0.12891,-0.03906l0.125,-0.03125l0.12109,-0.03125l0.11328,-0.02734l0.10938,-0.02344l0.10156,-0.02344l0.1875,-0.04297l0.16406,-0.03125l0.14063,-0.02734l0.11719,-0.01953l0.08984,-0.01562l0.0625,-0.00781l0.05469,-0.00781zM16.34375,24.85547l-0.22266,0.00391l-0.21875,0.00391l-0.21875,0.00781l-0.21484,0.01172l-0.42187,0.03125l-0.10547,0.01172l-0.10156,0.01172l-0.10547,0.01172l-0.20312,0.02344l-0.20312,0.03125l-0.09766,0.01172l-0.10156,0.01953l-0.09766,0.01563l-0.29297,0.05859l-0.09766,0.02344l-0.09375,0.01953l-0.09766,0.02734l-0.1875,0.04688l-0.09375,0.02734l-0.08984,0.02734l-0.09375,0.03125l-0.08984,0.02734l-0.08984,0.03125l-0.08984,0.03516l-0.08984,0.03125l-0.08984,0.03516l-0.08594,0.03516l-0.08984,0.03906l-0.17187,0.07813l-0.08203,0.03906l-0.08594,0.04297l-0.08203,0.04297l-0.32812,0.1875l-0.07812,0.05078l-0.08203,0.05078l-0.07812,0.05469l-0.07422,0.05469l-0.07812,0.05469l-0.07812,0.05859l-0.07422,0.05859l-0.22266,0.1875l-0.07031,0.06641l-0.08594,0.07813l-0.08594,0.08203l-0.08203,0.07813l-0.08203,0.08203l-0.15625,0.16406l-0.14844,0.16406l-0.07422,0.08594l-0.07422,0.08203l-0.07031,0.08594l-0.06641,0.08203l-0.19922,0.25781l-0.0625,0.08594l-0.05859,0.08984l-0.0625,0.08594l-0.05859,0.08594l-0.10937,0.17969l-0.05859,0.08984l-0.15234,0.26953l-0.04687,0.08984l-0.05078,0.09375l-0.04297,0.08984l-0.04687,0.08984l-0.04297,0.09375l-0.03906,0.09375l-0.04297,0.09375l-0.03906,0.09375l-0.03516,0.09375l-0.03906,0.09375l-0.03125,0.09375l-0.03516,0.09375l-0.03516,0.09766l-0.03125,0.09375l-0.02734,0.09766l-0.02734,0.09375l-0.05469,0.19531l-0.07031,0.29297l-0.05859,0.29297l-0.01562,0.10156l-0.01562,0.09766l-0.01562,0.10156l-0.01562,0.09766l-0.02344,0.20313l-0.00781,0.10156l-0.00781,0.09766l-0.01562,0.20313l-0.00781,0.20313l-0.00391,0.10547l-0.00391,0.10156v0.10156l0.00391,0.21484l0.00391,0.21094l0.00781,0.20703l0.00781,0.20313l0.01172,0.20313l0.01563,0.19922l0.01563,0.19531l0.01953,0.19531l0.02344,0.19141l0.02344,0.1875l0.02734,0.1875l0.03125,0.17969l0.03516,0.18359l0.03125,0.17578l0.03906,0.17578l0.03906,0.17188l0.02344,0.08594l0.01953,0.08594l0.02344,0.08203l0.02344,0.08594l0.04688,0.16406l0.02734,0.08203l0.02344,0.07813l0.02734,0.08203l0.02344,0.07813l0.02734,0.08203l0.02734,0.07813l0.03125,0.07813l0.02734,0.07813l0.03125,0.07422l0.02734,0.07422l0.03125,0.07813l0.0625,0.14844l0.03516,0.07422l0.03125,0.07031l0.03516,0.07422l0.03125,0.07031l0.03516,0.07031l0.03516,0.07422l0.03516,0.07031l0.03906,0.06641l0.03516,0.07031l0.03906,0.07031l0.19531,0.33203l0.04297,0.0625l0.03906,0.06641l0.21484,0.3125l0.04688,0.0625l0.04297,0.05859l0.04688,0.05859l0.04688,0.0625l0.04688,0.05859l0.09375,0.11328l0.09766,0.11719l0.09766,0.10938l0.10547,0.10938l0.10156,0.10938l0.10547,0.10547l0.10547,0.10156l0.11328,0.10156l0.10938,0.10156l0.11328,0.09766l0.35156,0.28125l0.12109,0.08984l0.375,0.25781l0.12891,0.08203l0.13281,0.08203l0.26563,0.15625l0.27344,0.14844l0.28125,0.14063l0.14453,0.07031l0.14063,0.06641l0.14844,0.06641l0.29688,0.125l0.15234,0.05859l0.15234,0.0625l0.46875,0.16406l0.16016,0.05469l0.16016,0.05078l0.16406,0.05078l0.32813,0.09375l0.16797,0.04688l0.16797,0.04297l0.17188,0.04297l0.16797,0.04297l0.17578,0.03906l0.17188,0.03906l0.17578,0.03906l0.17969,0.03516l0.17578,0.03516l0.17969,0.03516l0.36719,0.0625l0.17969,0.03125l0.375,0.05469l0.18359,0.02734l0.19141,0.02734l0.1875,0.02344l0.19531,0.02344l0.19141,0.02344l0.19141,0.01953l0.19531,0.02344l0.19922,0.01953l0.19531,0.01563l0.19922,0.01953l0.39844,0.03125l0.20313,0.01563l0.19922,0.01563l0.20703,0.01172l0.20313,0.01172l0.41406,0.02344l0.41406,0.01563l0.21094,0.01172l0.21094,0.00781l0.42188,0.01172l0.42969,0.01172l0.42969,0.00781l0.43359,0.00391l0.4375,0.00391h1.02344l0.4375,-0.00391l0.43359,-0.00391l0.42969,-0.00781l0.42578,-0.01172l0.42188,-0.01172l0.21094,-0.00781l0.20703,-0.01172l0.21094,-0.00781l0.20703,-0.00781l0.20313,-0.01172l0.20703,-0.01172l0.40625,-0.02344l0.20313,-0.01562l0.59766,-0.04687l0.19922,-0.01953l0.19531,-0.01562l0.19531,-0.01953l0.19141,-0.02344l0.19141,-0.01953l0.38281,-0.04687l0.1875,-0.02344l0.375,-0.05469l0.18359,-0.02734l0.1875,-0.02734l0.17969,-0.03125l0.18359,-0.03125l0.17969,-0.03125l0.17578,-0.03516l0.17969,-0.03516l0.17578,-0.03516l0.51563,-0.11719l0.17188,-0.04297l0.33594,-0.08594l0.49219,-0.14062l0.32031,-0.10156l0.46875,-0.16406l0.15234,-0.05469l0.14844,-0.0625l0.15234,-0.05859l0.14844,-0.0625l0.14453,-0.0625l0.28906,-0.13281l0.28125,-0.14062l0.13672,-0.07031l0.13672,-0.07422l0.13281,-0.07422l0.26563,-0.15625l0.12891,-0.08203l0.125,-0.08203l0.12891,-0.08594l0.24219,-0.17187l0.12109,-0.08984l0.23438,-0.1875l0.11328,-0.09375l0.11328,-0.09766l0.10938,-0.10156l0.21094,-0.20312l0.10547,-0.10547l0.20313,-0.21875l0.09766,-0.10937l0.09375,-0.11719l0.09375,-0.11328l0.09375,-0.12109l0.08984,-0.11719l0.21484,-0.3125l0.03906,-0.0625l0.04297,-0.06641l0.03906,-0.0625l0.19531,-0.33203l0.07031,-0.14062l0.03516,-0.06641l0.03516,-0.07031l0.03516,-0.07422l0.07031,-0.14062l0.03125,-0.07422l0.03125,-0.07031l0.03516,-0.07422l0.03125,-0.07422l0.02734,-0.07422l0.03125,-0.07812l0.03125,-0.07422l0.02734,-0.07422l0.02734,-0.07812l0.03125,-0.07812l0.02734,-0.07812l0.02344,-0.08203l0.02734,-0.07812l0.02344,-0.08203l0.02734,-0.07812l0.07031,-0.24609l0.04297,-0.16797l0.04297,-0.17187l0.03906,-0.17187l0.03906,-0.17578l0.03516,-0.17578l0.03125,-0.18359l0.02734,-0.17969l0.03125,-0.1875l0.02344,-0.1875l0.01953,-0.19141l0.03906,-0.39062l0.01172,-0.19922l0.02344,-0.40625l0.00781,-0.20703l0.00391,-0.21094v-0.31641l-0.00391,-0.10156v-0.10547l-0.00391,-0.10156l-0.00781,-0.10156l-0.00391,-0.10156l-0.00781,-0.10156l-0.00781,-0.09766l-0.03516,-0.30469l-0.01172,-0.09766l-0.01562,-0.10156l-0.01562,-0.09766l-0.01953,-0.10156l-0.01562,-0.09766l-0.01953,-0.09766l-0.02344,-0.09766l-0.01953,-0.09766l-0.02344,-0.09766l-0.02734,-0.09766l-0.02344,-0.09766l-0.02734,-0.09766l-0.03125,-0.09375l-0.02734,-0.09766l-0.03125,-0.09375l-0.03516,-0.09766l-0.03125,-0.09375l-0.07031,-0.1875l-0.11719,-0.28125l-0.08594,-0.1875l-0.04297,-0.08984l-0.04687,-0.08984l-0.04687,-0.09375l-0.20312,-0.35937l-0.10937,-0.17969l-0.05859,-0.08984l-0.11719,-0.17187l-0.0625,-0.08984l-0.0625,-0.08594l-0.06641,-0.08594l-0.0625,-0.08594l-0.07031,-0.08594l-0.06641,-0.08203l-0.07031,-0.08594l-0.07422,-0.08203l-0.07031,-0.08594l-0.07422,-0.08203l-0.23437,-0.24609l-0.08203,-0.08203l-0.08203,-0.07812l-0.08594,-0.08203l-0.08203,-0.07812l-0.07422,-0.06641l-0.07031,-0.0625l-0.07422,-0.0625l-0.07812,-0.0625l-0.14844,-0.11719l-0.23437,-0.16406l-0.07812,-0.05078l-0.08203,-0.05078l-0.07812,-0.04687l-0.24609,-0.14062l-0.08594,-0.04297l-0.08203,-0.04297l-0.34375,-0.15625l-0.08984,-0.03516l-0.08594,-0.03516l-0.08984,-0.03125l-0.08984,-0.03516l-0.08984,-0.03125l-0.09375,-0.02734l-0.08984,-0.03125l-0.1875,-0.05469l-0.1875,-0.04687l-0.09375,-0.02734l-0.09766,-0.01953l-0.09375,-0.02344l-0.29297,-0.05859l-0.10156,-0.01562l-0.09766,-0.01562l-0.30469,-0.04687l-0.30469,-0.03516l-0.21094,-0.02344l-0.10156,-0.00781l-0.10547,-0.00781l-0.10937,-0.00781l-0.10547,-0.00781l-0.21484,-0.01172l-0.21484,-0.00781l-0.22266,-0.00391l-0.21875,-0.00391l-0.22656,-0.00391l-0.22266,0.00391h-0.23047l-0.22656,0.00781l-0.23437,0.00391l-0.23437,0.01172l-0.23437,0.00781l-0.47656,0.02344l-0.24219,0.01563l-0.24219,0.01172l-0.24609,0.01563l-0.49609,0.03516l-1.00781,0.07031l-0.51562,0.03516l-0.51953,0.03516l-0.26562,0.01563l-0.26172,0.01563l-0.26562,0.01563l-0.26562,0.01172l-0.26953,0.01563l-0.26562,0.01172l-0.27344,0.00781l-0.26953,0.00781l-0.27344,0.00781l-0.54687,0.00781h-0.69531l-0.54687,-0.00781l-0.27344,-0.00781l-0.53906,-0.01562l-0.26953,-0.01172l-0.26953,-0.01562l-0.26562,-0.01172l-0.26562,-0.01562l-0.52344,-0.03125l-0.52344,-0.03516l-0.51172,-0.03516l-1.01172,-0.07031l-0.49609,-0.03516l-0.24219,-0.01562l-0.24219,-0.01172l-0.24219,-0.01562l-0.24219,-0.01172l-0.23828,-0.01172l-0.23437,-0.00781l-0.23437,-0.01172l-0.23047,-0.00391l-0.23047,-0.00781h-0.22656l-0.22656,-0.00391zM33.03125,28.77344l0.08203,0.00781l0.08594,0.00391l0.16406,0.02344l0.07813,0.01563l0.08203,0.01953l0.07813,0.01953l0.08203,0.02734l0.07813,0.02344l0.07422,0.03125l0.07813,0.03125l0.07422,0.03516l0.07813,0.03516l0.07422,0.03906l0.07422,0.04297l0.07031,0.04297l0.14063,0.09375l0.07031,0.05078l0.07031,0.05469l0.13281,0.10938l0.06641,0.0625l0.125,0.125l0.125,0.13281l0.11719,0.14063l0.05859,0.07422l0.05469,0.07422l0.05469,0.07813l0.05078,0.07813l0.05469,0.08203l0.04688,0.08203l0.05078,0.08594l0.04688,0.08203l0.04688,0.08984l0.12891,0.26953l0.03906,0.09375l0.03906,0.09766l0.03906,0.09375l0.03516,0.09766l0.03125,0.10156l0.03125,0.09766l0.03125,0.10156l0.02734,0.10547l0.02734,0.10156l0.04688,0.21094l0.03906,0.21875l0.01953,0.10547l0.01172,0.11328l0.01563,0.10938l0.01172,0.11328l0.01563,0.22656l0.00391,0.11328l0.00391,0.11719v0.23047l-0.00391,0.11719l-0.00391,0.11328l-0.01562,0.22656l-0.01172,0.11328l-0.01562,0.11328l-0.01172,0.10938l-0.03906,0.21875l-0.01953,0.10547l-0.04687,0.21094l-0.02734,0.10547l-0.02734,0.10156l-0.0625,0.20313l-0.03125,0.09766l-0.03906,0.09766l-0.03516,0.09766l-0.07812,0.1875l-0.04297,0.08984l-0.04297,0.09375l-0.04297,0.08984l-0.09375,0.17188l-0.05078,0.08203l-0.04687,0.08594l-0.05469,0.07813l-0.05078,0.08203l-0.05469,0.07422l-0.05859,0.07422l-0.05469,0.07422l-0.05859,0.07422l-0.05859,0.06641l-0.0625,0.07031l-0.0625,0.06641l-0.125,0.125l-0.13281,0.11719l-0.06641,0.05469l-0.07031,0.05469l-0.07031,0.04688l-0.07031,0.05078l-0.07031,0.04688l-0.07031,0.04297l-0.07422,0.04297l-0.07422,0.03906l-0.07812,0.03516l-0.07422,0.03516l-0.07812,0.03125l-0.07422,0.02734l-0.07812,0.02734l-0.08203,0.02344l-0.07812,0.01953l-0.08203,0.01953l-0.07812,0.01563l-0.16406,0.02344l-0.08594,0.00781l-0.08203,0.00391h-0.16797l-0.08203,-0.00391l-0.08203,-0.00781l-0.16406,-0.02344l-0.08203,-0.01562l-0.08203,-0.01953l-0.07812,-0.01953l-0.07812,-0.02344l-0.15625,-0.05469l-0.07812,-0.03125l-0.07422,-0.03516l-0.07812,-0.03516l-0.07031,-0.03906l-0.14844,-0.08594l-0.07031,-0.04687l-0.07031,-0.05078l-0.07031,-0.04687l-0.07031,-0.05469l-0.06641,-0.05469l-0.06641,-0.05859l-0.0625,-0.05859l-0.06641,-0.0625l-0.0625,-0.0625l-0.0625,-0.06641l-0.0625,-0.07031l-0.05859,-0.06641l-0.11719,-0.14844l-0.10937,-0.14844l-0.05078,-0.08203l-0.05469,-0.07812l-0.04687,-0.08594l-0.05078,-0.08203l-0.09375,-0.17187l-0.04297,-0.08984l-0.04297,-0.09375l-0.04297,-0.08984l-0.07812,-0.1875l-0.10547,-0.29297l-0.0625,-0.20312l-0.02734,-0.10156l-0.02734,-0.10547l-0.04687,-0.21094l-0.01953,-0.10547l-0.03906,-0.21875l-0.01562,-0.10937l-0.02344,-0.22656l-0.02344,-0.33984v-0.11719l-0.00391,-0.11328l0.00391,-0.11719v-0.11719l0.02344,-0.33984l0.01172,-0.11328l0.01172,-0.10937l0.01563,-0.11328l0.01953,-0.10547l0.03906,-0.21875l0.04688,-0.21094l0.02734,-0.10156l0.02734,-0.10547l0.03125,-0.10156l0.03125,-0.09766l0.03516,-0.10156l0.03516,-0.09766l0.03516,-0.09375l0.03906,-0.09766l0.03906,-0.09375l0.12891,-0.26953l0.04688,-0.08984l0.04688,-0.08203l0.05078,-0.08594l0.04688,-0.08203l0.05469,-0.08203l0.05078,-0.07812l0.05469,-0.07812l0.05469,-0.07422l0.05859,-0.07422l0.11719,-0.14062l0.125,-0.13281l0.0625,-0.0625l0.06641,-0.0625l0.0625,-0.0625l0.13281,-0.10937l0.07031,-0.05469l0.07031,-0.05078l0.14063,-0.09375l0.14844,-0.08594l0.07031,-0.03906l0.07813,-0.03516l0.07422,-0.03516l0.15625,-0.0625l0.07813,-0.02344l0.07813,-0.02734l0.07813,-0.01953l0.08203,-0.01953l0.08203,-0.01562l0.16406,-0.02344l0.08203,-0.00391l0.08203,-0.00781zM17.13672,28.77344l0.08203,0.00781l0.08203,0.00391l0.16406,0.02344l0.08203,0.01563l0.08203,0.01953l0.07813,0.01953l0.07813,0.02734l0.07813,0.02344l0.15625,0.0625l0.07422,0.03516l0.07813,0.03516l0.07031,0.03906l0.14844,0.08594l0.14063,0.09375l0.07031,0.05078l0.07031,0.05469l0.13281,0.10938l0.06641,0.0625l0.125,0.125l0.125,0.13281l0.11719,0.14063l0.05859,0.07422l0.05469,0.07422l0.05469,0.07813l0.05078,0.07813l0.05469,0.08203l0.04688,0.08203l0.05078,0.08594l0.04688,0.08203l0.04688,0.08984l0.12891,0.26953l0.03906,0.09375l0.03906,0.09766l0.03516,0.09375l0.03516,0.09766l0.03516,0.10156l0.03125,0.09766l0.03125,0.10156l0.02734,0.10547l0.02734,0.10156l0.04688,0.21094l0.03906,0.21875l0.01953,0.10547l0.01563,0.11328l0.01172,0.10938l0.01172,0.11328l0.02344,0.33984v0.11719l0.00391,0.11719l-0.00391,0.11328v0.11719l-0.02344,0.33984l-0.02344,0.22656l-0.01562,0.10938l-0.03906,0.21875l-0.01953,0.10547l-0.04687,0.21094l-0.02734,0.10547l-0.02734,0.10156l-0.0625,0.20313l-0.03125,0.09766l-0.03906,0.09766l-0.03516,0.09766l-0.07812,0.1875l-0.04297,0.08984l-0.04297,0.09375l-0.04297,0.08984l-0.09375,0.17188l-0.04687,0.08203l-0.05078,0.08594l-0.05078,0.07813l-0.05469,0.08203l-0.10937,0.14844l-0.11719,0.14844l-0.05859,0.06641l-0.0625,0.07031l-0.0625,0.06641l-0.125,0.125l-0.13281,0.11719l-0.06641,0.05469l-0.07031,0.05469l-0.07031,0.04688l-0.07031,0.05078l-0.07031,0.04688l-0.14844,0.08594l-0.07031,0.03906l-0.07812,0.03516l-0.07422,0.03516l-0.07812,0.03125l-0.15625,0.05469l-0.07812,0.02344l-0.07812,0.01953l-0.08203,0.01953l-0.08203,0.01563l-0.16406,0.02344l-0.08203,0.00781l-0.08203,0.00391h-0.16797l-0.08203,-0.00391l-0.08594,-0.00781l-0.16406,-0.02344l-0.07812,-0.01562l-0.08203,-0.01953l-0.07812,-0.01953l-0.08203,-0.02344l-0.07812,-0.02734l-0.07422,-0.02734l-0.07812,-0.03125l-0.07422,-0.03516l-0.07812,-0.03516l-0.07422,-0.03906l-0.07031,-0.04297l-0.07422,-0.04297l-0.07031,-0.04687l-0.07031,-0.05078l-0.07031,-0.04687l-0.07031,-0.05469l-0.06641,-0.05469l-0.13281,-0.11719l-0.125,-0.125l-0.0625,-0.06641l-0.0625,-0.07031l-0.05859,-0.06641l-0.05859,-0.07422l-0.05469,-0.07422l-0.05859,-0.07422l-0.05469,-0.07422l-0.05078,-0.08203l-0.05469,-0.07812l-0.04687,-0.08594l-0.05078,-0.08203l-0.09375,-0.17187l-0.04297,-0.08984l-0.04297,-0.09375l-0.04297,-0.08984l-0.07812,-0.1875l-0.03516,-0.09766l-0.03906,-0.09766l-0.03125,-0.09766l-0.0625,-0.20312l-0.02734,-0.10156l-0.02734,-0.10547l-0.04687,-0.21094l-0.01953,-0.10547l-0.03906,-0.21875l-0.01172,-0.10937l-0.01562,-0.11328l-0.01172,-0.11328l-0.01562,-0.22656l-0.00391,-0.11328l-0.00391,-0.11719v-0.23047l0.00391,-0.11719l0.00391,-0.11328l0.01563,-0.22656l0.01172,-0.11328l0.01563,-0.10937l0.01172,-0.11328l0.01953,-0.10547l0.03906,-0.21875l0.04688,-0.21094l0.02734,-0.10156l0.02734,-0.10547l0.03125,-0.10156l0.03125,-0.09766l0.03125,-0.10156l0.03906,-0.09766l0.03516,-0.09375l0.03906,-0.09766l0.03906,-0.09375l0.12891,-0.26953l0.04688,-0.08984l0.04688,-0.08203l0.05078,-0.08594l0.04688,-0.08203l0.05469,-0.08203l0.05078,-0.07812l0.05469,-0.07812l0.05859,-0.07422l0.05469,-0.07422l0.11719,-0.14062l0.125,-0.13281l0.125,-0.125l0.06641,-0.0625l0.13281,-0.10937l0.07031,-0.05469l0.07031,-0.05078l0.14063,-0.09375l0.07422,-0.04297l0.07031,-0.04297l0.07422,-0.03906l0.07813,-0.03516l0.07422,-0.03516l0.07813,-0.03125l0.07422,-0.03125l0.07813,-0.02344l0.08203,-0.02734l0.07813,-0.01953l0.08203,-0.01953l0.07813,-0.01562l0.16406,-0.02344l0.08594,-0.00391l0.08203,-0.00781zM8.58984,8.42969l-0.06641,0.20703l-0.11719,0.41406l-0.05469,0.20313l-0.05469,0.20703l-0.05078,0.19922l-0.05078,0.20313l-0.04297,0.19922l-0.04687,0.20313l-0.04297,0.19531l-0.07812,0.39063l-0.03516,0.19531l-0.03516,0.1875l-0.03125,0.19141l-0.03125,0.1875l-0.02734,0.1875l-0.02734,0.17969l-0.02734,0.18359l-0.02344,0.17969l-0.03906,0.35156l-0.01953,0.17188l-0.01562,0.17188l-0.01562,0.16797l-0.01562,0.16406l-0.01172,0.16406l-0.01172,0.15625l-0.00781,0.16016l-0.01562,0.30469l-0.00391,0.14844l-0.00391,0.14453l-0.00781,0.14063v0.65625l0.00391,0.12109l0.00391,0.11719l0.00391,0.11328l0.00781,0.10938l0.00391,0.10156l0.00781,0.10156l0.00391,0.09766l0.00781,0.08984l0.00781,0.08594l0.01172,0.08203l0.00781,0.07422l0.00781,0.07031l0.00781,0.06641l0.00781,0.05859l0.01172,0.05469l0.00781,0.04297l0.19922,1.03906l-0.77734,0.85547l-0.09375,0.10547l-0.09375,0.10156l-0.08984,0.10938l-0.09375,0.10547l-0.08594,0.10547l-0.08984,0.10938l-0.08203,0.10547l-0.08594,0.10938l-0.24609,0.32813l-0.07812,0.10938l-0.07812,0.11328l-0.07422,0.10938l-0.14844,0.22656l-0.14062,0.22656l-0.06641,0.11719l-0.07031,0.11719l-0.0625,0.11328l-0.06641,0.11719l-0.0625,0.11719l-0.0625,0.12109l-0.05859,0.11719l-0.11719,0.24219l-0.05469,0.125l-0.05469,0.12109l-0.05469,0.125l-0.10156,0.25l-0.04687,0.12891l-0.05078,0.12891l-0.04297,0.12891l-0.04687,0.12891l-0.04297,0.13281l-0.03906,0.13281l-0.04297,0.13281l-0.03516,0.13672l-0.03906,0.13281l-0.03516,0.14063l-0.03516,0.13672l-0.03125,0.14063l-0.03125,0.14453l-0.02734,0.14063l-0.03125,0.14453l-0.02734,0.14844l-0.04687,0.29688l-0.01953,0.14844l-0.01953,0.15234l-0.03906,0.3125l-0.01172,0.15625l-0.01562,0.15625l-0.01172,0.16406l-0.00781,0.16016l-0.00781,0.16406l-0.00781,0.16797l-0.00781,0.33594v0.36719l0.00391,0.19531l0.00391,0.19141l0.00391,0.19531l0.00391,0.1875l0.01563,0.375l0.00781,0.18359l0.02344,0.36719l0.01172,0.17969l0.0625,0.70313l0.01953,0.17188l0.03906,0.33594l0.02344,0.16797l0.07031,0.49219l0.02734,0.16016l0.08203,0.46875l0.03125,0.15625l0.0625,0.30469l0.03125,0.14844l0.07031,0.29688l0.07031,0.28906l0.03906,0.14063l0.03516,0.14063l0.03906,0.14063l0.04297,0.13672l0.03906,0.13672l0.04297,0.13672l0.08594,0.26563l0.08594,0.25781l0.04688,0.12891l0.04688,0.125l0.04688,0.12891l0.04688,0.12109l0.05078,0.125l0.04688,0.12109l0.05078,0.12109l0.05078,0.11719l0.05469,0.11719l0.05078,0.11719l0.05078,0.11328l0.05469,0.11719l0.05469,0.11328l0.10938,0.21875l0.05859,0.10938l0.05469,0.10938l0.17578,0.31641l0.11719,0.20313l0.125,0.20313l0.0625,0.09766l0.05859,0.09766l0.06641,0.09375l0.0625,0.09766l0.0625,0.09375l0.06641,0.09375l0.0625,0.08984l0.06641,0.09375l0.06641,0.08984l0.06641,0.08594l0.00781,0.01172l-0.00391,-0.01562l-0.03906,-0.09375l-0.03516,-0.09375l-0.03516,-0.09766l-0.03125,-0.09375l-0.03516,-0.09766l-0.03125,-0.09766l-0.03125,-0.09375l-0.03125,-0.09766l-0.02734,-0.10156l-0.03125,-0.09766l-0.02734,-0.10156l-0.02734,-0.09766l-0.05469,-0.20312l-0.02344,-0.10547l-0.04687,-0.20312l-0.04687,-0.20703l-0.04297,-0.21094l-0.03516,-0.21094l-0.07031,-0.42969l-0.02734,-0.21875l-0.02734,-0.22266l-0.02344,-0.22266l-0.01953,-0.22656l-0.01562,-0.22656l-0.02344,-0.46094l-0.00781,-0.23437l-0.00781,-0.47656v-0.125l0.01172,-0.375l0.02344,-0.375l0.01172,-0.125l0.01172,-0.12109l0.01563,-0.125l0.01172,-0.125l0.01953,-0.125l0.01563,-0.12109l0.02344,-0.125l0.01953,-0.125l0.02344,-0.125l0.02344,-0.12109l0.02734,-0.125l0.02734,-0.12109l0.02734,-0.125l0.03516,-0.12109l0.03125,-0.125l0.10547,-0.36328l0.04297,-0.12109l0.03906,-0.12109l0.04297,-0.12109l0.04297,-0.11719l0.04688,-0.12109l0.05078,-0.11719l0.04688,-0.12109l0.05078,-0.11719l0.16406,-0.35156l0.05859,-0.11719l0.0625,-0.11328l0.05859,-0.11719l0.06641,-0.11328l0.0625,-0.11328l0.06641,-0.11328l0.14063,-0.22656l0.07031,-0.10937l0.07422,-0.10937l0.07422,-0.11328l0.07813,-0.10937l0.07813,-0.10547l0.08203,-0.10937l0.16406,-0.21094l0.17188,-0.21094l0.08984,-0.10547l0.08984,-0.10156l0.28125,-0.30469l0.09766,-0.09766l0.09766,-0.10156l0.20313,-0.19531l0.10547,-0.09766l0.09375,-0.08594l0.20313,-0.17187l0.10156,-0.08203l0.20313,-0.15625l0.10547,-0.07812l0.10547,-0.07422l0.10938,-0.07031l0.10547,-0.07031l0.10938,-0.07031l0.10547,-0.06641l0.11328,-0.0625l0.21875,-0.125l0.11328,-0.05859l0.33984,-0.16406l0.11328,-0.04687l0.11328,-0.05078l0.11328,-0.04687l0.11719,-0.04687l0.11719,-0.04297l0.11328,-0.04297l0.23438,-0.07812l0.35156,-0.10547l0.11719,-0.03125l0.12109,-0.03125l0.35156,-0.08203l0.12109,-0.02734l0.11719,-0.02344l0.12109,-0.01953l0.11719,-0.02344l0.11719,-0.01953l0.12109,-0.01953l0.12109,-0.01562l0.12109,-0.01953l0.11719,-0.01172l0.24219,-0.03125l0.11719,-0.01172l0.12109,-0.00781l0.24219,-0.02344l0.24219,-0.01562l0.48438,-0.02344l0.48437,-0.00781l0.24609,-0.00391l0.24219,0.00391h0.24609l0.73828,0.02344l0.24609,0.01172l0.25,0.01172l0.24609,0.01172l0.25,0.01563l0.25,0.01172l0.25391,0.01953l0.5,0.03125l1.01172,0.07031l1.02344,0.07031l0.77344,0.04688l1.03125,0.04688l0.26172,0.00781l0.25781,0.00391l0.52344,0.00781h0.66016l0.26172,-0.00391l0.51563,-0.00781l0.26172,-0.00781l0.51563,-0.02344l0.26172,-0.01172l0.25781,-0.01172l0.51563,-0.03125l0.25391,-0.01562l1.02344,-0.07031l1.01172,-0.07031l0.50391,-0.03125l0.25,-0.01953l0.25,-0.01172l0.25,-0.01562l0.25,-0.01172l0.24609,-0.01172l0.25,-0.01172l0.73828,-0.02344h0.24219l0.24609,-0.00391l0.24219,0.00391l0.24609,0.00391l0.24219,0.00391l0.24219,0.01172l0.23828,0.01172l0.125,0.00781l0.12109,0.00781l0.11719,0.01172l0.12109,0.01172l0.12109,0.00781l0.12109,0.01563l0.11719,0.01172l0.36328,0.04688l0.11719,0.01563l0.12109,0.01953l0.11719,0.01953l0.12109,0.02344l0.11719,0.01953l0.12109,0.02734l0.11719,0.02344l0.11719,0.02734l0.12109,0.02734l0.11719,0.02734l0.23438,0.0625l0.35156,0.10547l0.23438,0.07813l0.11719,0.04297l0.11328,0.04297l0.11719,0.04688l0.11328,0.04688l0.11719,0.05078l0.22656,0.10156l0.11328,0.05469l0.10938,0.05469l0.11328,0.05859l0.10938,0.0625l0.11328,0.0625l0.10938,0.0625l0.10938,0.06641l0.10938,0.07031l0.21094,0.14063l0.10547,0.07422l0.10547,0.07813l0.10156,0.07813l0.10547,0.07813l0.10156,0.08203l0.10156,0.08594l0.09766,0.08594l0.09375,0.08594l0.10938,0.09766l0.10156,0.09766l0.09766,0.09766l0.09766,0.10156l0.09766,0.09766l0.09766,0.10156l0.09375,0.10156l0.17969,0.20313l0.08984,0.10547l0.25781,0.31641l0.08203,0.10547l0.07813,0.10938l0.07813,0.10547l0.07813,0.10938l0.07422,0.11328l0.14844,0.21875l0.06641,0.11328l0.07031,0.11328l0.13281,0.22656l0.0625,0.11328l0.0625,0.11719l0.05859,0.11328l0.05859,0.11719l0.16406,0.35156l0.05078,0.11719l0.05078,0.12109l0.04688,0.11719l0.04688,0.12109l0.04297,0.11719l0.08594,0.24219l0.03906,0.12109l0.10547,0.36328l0.03516,0.125l0.03125,0.12109l0.02734,0.125l0.02734,0.12109l0.02734,0.125l0.02344,0.12109l0.04688,0.25l0.01953,0.125l0.01563,0.12109l0.01953,0.125l0.01563,0.125l0.01172,0.125l0.01172,0.12109l0.01172,0.125l0.02344,0.375l0.01172,0.375v0.36328l-0.00391,0.23828l-0.01172,0.23047l-0.00781,0.23438l-0.01562,0.22656l-0.01562,0.23047l-0.01953,0.22266l-0.04687,0.44531l-0.02734,0.21484l-0.03516,0.21875l-0.03125,0.21484l-0.03906,0.21094l-0.03906,0.20703l-0.09375,0.41406l-0.05078,0.20313l-0.05078,0.19922l-0.05469,0.19531l-0.03125,0.10156l-0.125,0.39063l-0.03516,0.09375l-0.03125,0.09375l-0.03516,0.09375l-0.03125,0.08203l0.04688,-0.05859l0.06641,-0.08984l0.06641,-0.09375l0.0625,-0.08984l0.06641,-0.09375l0.0625,-0.09375l0.0625,-0.09766l0.06641,-0.09375l0.05859,-0.09766l0.0625,-0.09766l0.125,-0.20312l0.11719,-0.20312l0.17578,-0.31641l0.05469,-0.10937l0.05859,-0.10937l0.10938,-0.21875l0.05469,-0.11328l0.05469,-0.11719l0.05078,-0.11328l0.05078,-0.11719l0.05469,-0.11719l0.05078,-0.11719l0.05078,-0.12109l0.04688,-0.12109l0.05078,-0.125l0.04688,-0.12109l0.04688,-0.12891l0.04688,-0.125l0.04688,-0.12891l0.08594,-0.25781l0.08594,-0.26562l0.04297,-0.13672l0.03906,-0.13672l0.04297,-0.13672l0.03906,-0.14062l0.03516,-0.14062l0.03906,-0.14062l0.07031,-0.28906l0.07031,-0.29687l0.03125,-0.14844l0.0625,-0.30469l0.03125,-0.15625l0.08203,-0.46875l0.02734,-0.16016l0.07031,-0.49219l0.02344,-0.16797l0.03906,-0.33594l0.01953,-0.17187l0.0625,-0.70312l0.01172,-0.17969l0.02344,-0.36719l0.00781,-0.18359l0.01563,-0.375l0.00391,-0.1875l0.00391,-0.19531l0.00391,-0.19141l0.00391,-0.19531v-0.36719l-0.00781,-0.33594l-0.00781,-0.16797l-0.00781,-0.16406l-0.00781,-0.16016l-0.01172,-0.16406l-0.01562,-0.15625l-0.01172,-0.15625l-0.03906,-0.3125l-0.01953,-0.15234l-0.01953,-0.14844l-0.04687,-0.29687l-0.02734,-0.14844l-0.03125,-0.14453l-0.02734,-0.14062l-0.03125,-0.14453l-0.03125,-0.14062l-0.03516,-0.13672l-0.03516,-0.14062l-0.03906,-0.13281l-0.03516,-0.13672l-0.04297,-0.13281l-0.03906,-0.13281l-0.04297,-0.13281l-0.04687,-0.12891l-0.04297,-0.12891l-0.05078,-0.12891l-0.04687,-0.12891l-0.10156,-0.25l-0.05469,-0.125l-0.05469,-0.12109l-0.05469,-0.125l-0.11719,-0.24219l-0.05859,-0.11719l-0.0625,-0.12109l-0.0625,-0.11719l-0.06641,-0.11719l-0.0625,-0.11328l-0.07031,-0.11719l-0.06641,-0.11719l-0.14062,-0.22656l-0.14844,-0.22656l-0.07422,-0.10937l-0.07812,-0.11328l-0.07812,-0.10937l-0.24609,-0.32812l-0.08594,-0.10937l-0.08203,-0.10547l-0.08984,-0.10937l-0.08594,-0.10547l-0.09375,-0.10547l-0.08984,-0.10937l-0.09375,-0.10156l-0.09375,-0.10547l-0.77734,-0.85547l0.19922,-1.03516l0.00781,-0.03516l0.00781,-0.04687l0.00781,-0.05469l0.00781,-0.0625l0.00781,-0.06641l0.00781,-0.07031l0.01563,-0.16406l0.00781,-0.08984l0.00391,-0.09375l0.00781,-0.09766l0.00391,-0.10156l0.00781,-0.10937l0.00781,-0.22656v-0.12109l0.00391,-0.125v-0.39453l-0.00391,-0.13672l-0.00781,-0.28906l-0.00391,-0.14844l-0.00781,-0.15234l-0.00781,-0.15625l-0.01172,-0.15625l-0.00781,-0.16406l-0.01172,-0.16406l-0.01562,-0.16406l-0.03125,-0.34375l-0.01953,-0.17187l-0.01953,-0.17578l-0.01953,-0.17969l-0.02344,-0.18359l-0.02344,-0.17969l-0.05469,-0.375l-0.03125,-0.19141l-0.03516,-0.1875l-0.03125,-0.19531l-0.03516,-0.19531l-0.03906,-0.19531l-0.03906,-0.19922l-0.08594,-0.39844l-0.04687,-0.20312l-0.15234,-0.60937l-0.05859,-0.20703l-0.05469,-0.20703l-0.0625,-0.21094l-0.0625,-0.20703l-0.02734,-0.08594l-0.07422,0.01953l-0.13672,0.04297l-0.14453,0.04297l-0.14844,0.05078l-0.3125,0.10156l-0.16406,0.05859l-0.17187,0.05859l-0.17187,0.0625l-0.17969,0.06641l-0.18359,0.07031l-0.1875,0.07422l-0.19531,0.07813l-0.19922,0.07813l-0.20312,0.08594l-0.20703,0.08984l-0.21484,0.08984l-0.21484,0.09766l-0.22266,0.10156l-0.22656,0.10547l-0.23047,0.10938l-0.23437,0.11328l-0.48437,0.24219l-0.24609,0.12891l-0.25391,0.13281l-0.25781,0.13672l-0.25781,0.14063l-0.26562,0.14844l-0.26953,0.15234l-0.26953,0.15625l-0.27734,0.16406l-0.28125,0.16797l-0.57031,0.35156l-0.29297,0.1875l-0.14844,0.09375l-0.14453,0.09375l-0.15234,0.10156l-0.14844,0.09766l-0.15234,0.09766l-0.15234,0.10547l-0.14844,0.10156l-0.91406,0.625l-1.00781,-0.26953l-0.10937,-0.02734l-0.12109,-0.02734l-0.125,-0.02734l-0.13281,-0.02734l-0.14062,-0.02344l-0.14453,-0.02734l-0.3125,-0.04687l-0.16406,-0.02734l-0.16797,-0.01953l-0.17187,-0.02344l-0.17578,-0.01953l-0.36719,-0.03906l-0.19141,-0.01953l-0.19141,-0.01562l-0.19531,-0.01562l-0.19922,-0.01562l-0.19922,-0.01172l-0.20703,-0.01172l-0.20703,-0.01562l-0.20703,-0.00781l-0.21094,-0.01172l-0.42187,-0.01562l-0.21484,-0.00391l-0.21875,-0.00391l-0.21484,-0.00391l-0.21875,-0.00391h-0.21484l-0.21875,-0.00391l-0.21875,0.00391h-0.21484l-0.21875,0.00391l-0.21484,0.00391l-0.21875,0.00391l-0.21484,0.00391l-0.42187,0.01563l-0.21094,0.01172l-0.20703,0.00781l-0.20703,0.01563l-0.40625,0.02344l-0.19922,0.01563l-0.19531,0.01563l-0.19141,0.01563l-0.19141,0.01953l-0.36719,0.03906l-0.17578,0.01953l-0.17187,0.02344l-0.16797,0.01953l-0.16406,0.02344l-0.15625,0.02734l-0.15625,0.02344l-0.14453,0.02734l-0.14062,0.02344l-0.13281,0.02734l-0.125,0.02734l-0.12109,0.02734l-0.10937,0.02734l-1.00781,0.26953l-0.91406,-0.625l-0.15234,-0.10547l-0.14844,-0.10156l-0.15234,-0.09766l-0.14844,-0.10156l-0.15234,-0.09766l-0.14453,-0.09375l-0.14844,-0.09375l-0.29297,-0.1875l-0.28906,-0.17969l-0.28125,-0.17187l-0.28125,-0.16797l-0.27734,-0.16406l-0.26953,-0.15625l-0.26953,-0.15234l-0.26562,-0.14844l-0.26172,-0.14062l-0.25391,-0.13672l-0.25391,-0.13281l-0.24609,-0.12891l-0.24609,-0.12109l-0.23828,-0.12109l-0.23437,-0.11328l-0.23047,-0.10937l-0.22656,-0.10547l-0.22266,-0.10156l-0.21484,-0.09766l-0.21484,-0.08984l-0.20703,-0.08984l-0.20312,-0.08594l-0.19922,-0.07812l-0.19141,-0.07812l-0.19141,-0.07422l-0.18359,-0.07031l-0.17969,-0.06641l-0.17187,-0.0625l-0.17187,-0.05859l-0.16406,-0.05859l-0.3125,-0.10156l-0.14844,-0.05078l-0.28125,-0.08594l-0.07812,-0.01953zM17.03906,30.77344h-0.01562l-0.01172,0.00391h-0.01562l-0.01172,0.00391h-0.01172l-0.04687,0.01172l-0.01562,0.00781l-0.01562,0.00391l-0.01562,0.00781l-0.01953,0.00781l-0.03906,0.02344l-0.02344,0.01172l-0.01953,0.01172l-0.07031,0.04688l-0.02734,0.01953l-0.02344,0.02344l-0.08203,0.07031l-0.02734,0.03125l-0.05859,0.05859l-0.05469,0.07031l-0.03125,0.03516l-0.02734,0.03906l-0.02734,0.04297l-0.02734,0.03906l-0.03125,0.04688l-0.02734,0.04297l-0.02734,0.04688l-0.05469,0.10156l-0.02344,0.05078l-0.02734,0.05469l-0.02344,0.05469l-0.07031,0.17578l-0.02344,0.0625l-0.03906,0.125l-0.01953,0.06641l-0.01953,0.0625l-0.01562,0.07031l-0.01562,0.06641l-0.03125,0.14063l-0.01172,0.07422l-0.01172,0.07031l-0.01172,0.07422l-0.00781,0.07422l-0.00781,0.07813l-0.00391,0.07422l-0.00781,0.07813l-0.00391,0.07813v0.31641l0.00391,0.07813l0.00781,0.07813l0.00391,0.07422l0.00781,0.07813l0.00781,0.07422l0.02344,0.14844l0.01172,0.07031l0.04688,0.21094l0.01563,0.06641l0.01953,0.06641l0.01953,0.0625l0.01953,0.06641l0.01953,0.0625l0.02344,0.0625l0.04688,0.11719l0.04688,0.10938l0.05469,0.10938l0.02344,0.05078l0.08203,0.14063l0.03125,0.04297l0.02734,0.04297l0.02734,0.03906l0.03125,0.03906l0.02734,0.03906l0.02734,0.03516l0.02734,0.03125l0.03125,0.03125l0.02734,0.03125l0.05469,0.05469l0.05469,0.04688l0.02344,0.01953l0.02734,0.01953l0.02344,0.01953l0.04688,0.03125l0.01953,0.01172l0.02344,0.01172l0.01953,0.01172l0.03906,0.01563l0.03125,0.01563l0.01563,0.00391l0.01563,0.00781l0.01563,0.00391h0.01563l0.01172,0.00391h0.01172l0.01563,0.00391h0.08203l0.01172,-0.00391h0.01563l0.01172,-0.00391l0.0625,-0.01562l0.03125,-0.01562l0.03906,-0.01562l0.01953,-0.01172l0.02344,-0.01172l0.01953,-0.01172l0.04688,-0.03125l0.02344,-0.01953l0.02734,-0.01953l0.02344,-0.01953l0.05469,-0.04687l0.05469,-0.05469l0.05469,-0.0625l0.03125,-0.03125l0.02734,-0.03516l0.02734,-0.03906l0.03125,-0.03906l0.02734,-0.03906l0.02734,-0.04297l0.03125,-0.04297l0.08203,-0.14062l0.02734,-0.05078l0.02344,-0.05469l0.02734,-0.05469l0.02344,-0.05469l0.02344,-0.05859l0.02734,-0.05469l0.01953,-0.05859l0.02344,-0.0625l0.01953,-0.0625l0.02344,-0.06641l0.01563,-0.0625l0.01953,-0.06641l0.01563,-0.07031l0.01563,-0.06641l0.03125,-0.14062l0.01172,-0.07031l0.02344,-0.14844l0.00781,-0.07422l0.00781,-0.07812l0.00391,-0.07422l0.00781,-0.07812l0.00391,-0.07812v-0.07812l0.00391,-0.07812l-0.00391,-0.08203v-0.07812l-0.00391,-0.07812l-0.00781,-0.07422l-0.00391,-0.07812l-0.00781,-0.07422l-0.00781,-0.07812l-0.01172,-0.07422l-0.01172,-0.07031l-0.01172,-0.07422l-0.03125,-0.14062l-0.03125,-0.13281l-0.01953,-0.06641l-0.01562,-0.06641l-0.02344,-0.0625l-0.01953,-0.0625l-0.02344,-0.0625l-0.01953,-0.05859l-0.02734,-0.05859l-0.02344,-0.05859l-0.02344,-0.05469l-0.02734,-0.05469l-0.02344,-0.05078l-0.05469,-0.10156l-0.02734,-0.04687l-0.02734,-0.04297l-0.03125,-0.04297l-0.05469,-0.08594l-0.03125,-0.03906l-0.05469,-0.07031l-0.03125,-0.03516l-0.02734,-0.03125l-0.08203,-0.08203l-0.05469,-0.04687l-0.02344,-0.02344l-0.02734,-0.01953l-0.07031,-0.04687l-0.01953,-0.01172l-0.02344,-0.01172l-0.03906,-0.02344l-0.01953,-0.00781l-0.01562,-0.00781l-0.03125,-0.00781l-0.01953,-0.00781l-0.01172,-0.00391l-0.01562,-0.00391h-0.01172l-0.01562,-0.00391h-0.01172l-0.01562,-0.00391zM32.93359,30.77344h-0.01172l-0.01562,0.00391h-0.01172l-0.01172,0.00391h-0.01562l-0.01562,0.00391l-0.01172,0.00391l-0.01562,0.00781l-0.01953,0.00391l-0.01562,0.00391l-0.01562,0.00781l-0.01953,0.00781l-0.03906,0.02344l-0.02344,0.01172l-0.01953,0.01172l-0.07031,0.04688l-0.02734,0.01953l-0.02344,0.02344l-0.05469,0.04688l-0.08203,0.08203l-0.02734,0.03125l-0.03125,0.03516l-0.02734,0.03516l-0.02734,0.03906l-0.03125,0.03516l-0.05469,0.08594l-0.03125,0.04297l-0.02734,0.04297l-0.02734,0.05078l-0.02734,0.04688l-0.02734,0.05078l-0.02344,0.05078l-0.02734,0.05469l-0.02344,0.05469l-0.02344,0.05859l-0.02734,0.05859l-0.01953,0.05859l-0.02344,0.0625l-0.01953,0.0625l-0.02344,0.0625l-0.01562,0.06641l-0.01953,0.06641l-0.03125,0.13281l-0.03125,0.14063l-0.01172,0.07422l-0.01172,0.07031l-0.01172,0.07422l-0.00781,0.07422l-0.00781,0.07813l-0.00391,0.07422l-0.00781,0.07813l-0.00391,0.07813v0.07813l-0.00391,0.08203l0.00391,0.07813v0.07813l0.00391,0.07813l0.00781,0.07813l0.00391,0.07422l0.00781,0.07813l0.00781,0.07422l0.02344,0.14844l0.01172,0.07031l0.03125,0.14063l0.01563,0.06641l0.01563,0.07031l0.01953,0.06641l0.01563,0.0625l0.02344,0.06641l0.01953,0.0625l0.02344,0.05859l0.01953,0.0625l0.02734,0.05469l0.02344,0.05859l0.02344,0.05469l0.02734,0.05469l0.02344,0.05469l0.02734,0.04688l0.02734,0.05078l0.05469,0.09375l0.03125,0.04297l0.02734,0.04297l0.02734,0.03906l0.03125,0.03906l0.02734,0.03906l0.02734,0.03516l0.03125,0.03125l0.05469,0.0625l0.05469,0.05469l0.05469,0.04688l0.02344,0.01953l0.02734,0.01953l0.02344,0.01953l0.04688,0.03125l0.01953,0.01172l0.02344,0.01172l0.01953,0.01172l0.03906,0.01563l0.01563,0.00781l0.01953,0.00781l0.03125,0.00781l0.01172,0.00391l0.03125,0.00781h0.01172l0.01172,0.00391h0.08203l0.01563,-0.00391h0.01172l0.01172,-0.00391h0.01563l0.01563,-0.00391l0.01563,-0.00781l0.01563,-0.00391l0.03125,-0.01562l0.03906,-0.01562l0.01953,-0.01172l0.02344,-0.01172l0.01953,-0.01172l0.04688,-0.03125l0.02344,-0.01953l0.02734,-0.01953l0.02344,-0.01953l0.05469,-0.04687l0.05469,-0.05469l0.02734,-0.03125l0.03125,-0.03125l0.02734,-0.03125l0.02734,-0.03516l0.02734,-0.03906l0.03125,-0.03906l0.02734,-0.03906l0.02734,-0.04297l0.03125,-0.04297l0.08203,-0.14062l0.02344,-0.05078l0.05469,-0.10937l0.04688,-0.10937l0.04688,-0.11719l0.02344,-0.0625l0.01953,-0.0625l0.01953,-0.06641l0.01953,-0.0625l0.01953,-0.06641l0.01563,-0.06641l0.04688,-0.21094l0.01172,-0.07031l0.02344,-0.14844l0.00781,-0.07422l0.00781,-0.07812l0.00391,-0.07422l0.00781,-0.07812l0.00391,-0.07812v-0.31641l-0.00781,-0.15625l-0.00781,-0.07422l-0.00781,-0.07812l-0.00781,-0.07422l-0.01172,-0.07422l-0.01172,-0.07031l-0.01172,-0.07422l-0.01562,-0.07031l-0.01172,-0.07031l-0.01562,-0.06641l-0.01953,-0.07031l-0.01953,-0.0625l-0.01953,-0.06641l-0.03906,-0.125l-0.02344,-0.0625l-0.02344,-0.05859l-0.01953,-0.05859l-0.02734,-0.05859l-0.02344,-0.05469l-0.02734,-0.05469l-0.02344,-0.05078l-0.05469,-0.10156l-0.02734,-0.04687l-0.02734,-0.04297l-0.03125,-0.04687l-0.02734,-0.03906l-0.02734,-0.04297l-0.02734,-0.03906l-0.03125,-0.03516l-0.05469,-0.07031l-0.05859,-0.05859l-0.02734,-0.03125l-0.05469,-0.04687l-0.02344,-0.02344l-0.02734,-0.02344l-0.02734,-0.01953l-0.07031,-0.04687l-0.01953,-0.01172l-0.02344,-0.01172l-0.03906,-0.02344l-0.01953,-0.00781l-0.01562,-0.00781l-0.01562,-0.00391l-0.01562,-0.00781l-0.04687,-0.01172h-0.01172l-0.01172,-0.00391h-0.01562l-0.01172,-0.00391z"></path></g></g></svg>