<svg xmlns="http://www.w3.org/2000/svg" xmlns:xlink="http://www.w3.org/1999/xlink" viewBox="0,0,256,256"
            width="50px" height="50px">
            <g fill="#ffffff" fill-rule="nonzero" stroke="none" stroke-width="1" stroke-linecap="butt"
              stroke-linejoin="miter" stroke-miterlimit="10" stroke-dasharray="" stroke-dashoffset="0"
              font-family="none" font-weight="none" font-size="none" text-anchor="none" style="mix-blend-mode: normal">
              <g transform="scale(5.12,5.12)">
                <path                 d="M5,4c-0.55226,0.00006 -0.99994,0.44774 -1,1v40c0.00006,0.55226 0.44774,0.99994 1,1h40c0.55226,-0.00006 0.99994,-0.44774 1,-1v-40c-0.00006,-0.55226 -0.44774,-0.99994 -1,-1zM6,6h38v38h-38zM11,13v0.5l1.85742,2.5c0.092,0.109 0.14258,0.24667 0.14258,0.38867v15.11133c0,0.221 -0.0768,0.43542 -0.2168,0.60742l-2.7832,3.43945v0.45313h8v-0.45312l-2.78516,-3.45898c-0.139,-0.171 -0.21484,-0.38647 -0.21484,-0.60547v-13.10742l8.30469,17.625h1.54297l0.00586,-0.01953l7.14648,-18.10156v14.87109c0,0.16 -0.06469,0.31373 -0.17969,0.42773l-2.82031,2.36914v0.45313h11v-0.45312l-1.82031,-2.36914c-0.115,-0.114 -0.17969,-0.26773 -0.17969,-0.42773v-16.625c0,-0.16 0.06469,-0.31373 0.17969,-0.42773l1.82031,-2.19727v-0.5h-8.22461l-5.7793,14.64258l-6.89844,-14.64258zM15.62109,15h2.20703l7.16016,15.19531l-1.00586,2.54883h-0.00195zM34,15h2.25781c-0.167,0.348 -0.25781,0.735 -0.25781,1.125v16.625c0,0.438 0.11327,0.869 0.32227,1.25h-2.64453c0.209,-0.381 0.32227,-0.812 0.32227,-1.25v-14.87109z">
                </path>
              </g>
            </g>
          </svg>