  <svg xmlns="http://www.w3.org/2000/svg" xmlns:xlink="http://www.w3.org/1999/xlink" viewBox="0,0,256,256"
      width="50px" height="50px">
      <g fill="#ffffff" fill-rule="nonzero" stroke="none" stroke-width="1" stroke-linecap="butt" stroke-linejoin="miter"
        stroke-miterlimit="10" stroke-dasharray="" stroke-dashoffset="0" font-family="none" font-weight="none"
        font-size="none" text-anchor="none" style="mix-blend-mode: normal">
        <g transform="scale(5.12,5.12)">
          <path
            d="M26.45508,1.60742c-0.18734,-0.01073 -0.38836,0.01656 -0.56641,0.10547c-0.35675,0.17816 -0.49437,0.4526 -0.5625,0.62305c-0.13626,0.3409 -0.10547,0.55664 -0.10547,0.55664c0.00002,0.05101 0.00393,0.10194 0.01172,0.15234c0.52497,3.41137 0.44097,6.97638 -0.73633,9.92773c-1.0958,2.74704 -3.14092,4.96029 -6.6543,6.28906c-1.04727,-1.79377 -1.61328,-4.64779 -1.61328,-5.64844c0,-0.31806 -0.16203,-0.67009 -0.35742,-0.86523c-0.19539,-0.19515 -0.38559,-0.27182 -0.53125,-0.32031c-0.29132,-0.09699 -0.51953,-0.08594 -0.51953,-0.08594c-0.17411,0.00033 -0.34511,0.04611 -0.49609,0.13281c-5.09718,2.91345 -9.32422,9.24547 -9.32422,15.79688c0,5.31172 1.77651,10.25251 5.19336,13.86719c3.41685,3.61468 8.4663,5.86133 14.80664,5.86133c11.78608,0 20,-9.29398 20,-19.59375c0,-13.62747 -9.54799,-22.49045 -18.05859,-26.67773h-0.00195c-0.12337,-0.06163 -0.29704,-0.11037 -0.48437,-0.12109zM27.20898,2.74023l0.01172,0.15234c0,0 -0.00215,0.01347 -0.00195,0.01367c-0.0081,-0.05447 -0.00137,-0.11165 -0.00977,-0.16602zM27.29102,4.29297c7.69199,4.17016 15.70898,12.06797 15.70898,24.11328c0,9.24423 -7.25808,17.59375 -18,17.59375c-5.87366,0 -10.32386,-2.02931 -13.35352,-5.23437c-3.02965,-3.20507 -4.64648,-7.62686 -4.64648,-12.49414c0,-5.25451 3.40256,-10.58357 7.40625,-13.35156c0.17478,1.77548 0.64601,4.15463 2.05078,6.07031c0.02968,0.04015 0.06232,0.07801 0.09766,0.11328l0.13477,0.13672c0.26455,0.26639 0.65601,0.36218 1.01367,0.24805c4.5262,-1.43674 7.28319,-4.34799 8.65039,-7.77539c1.17658,-2.94954 1.26179,-6.23376 0.9375,-9.41992z">
          </path>
        </g>
      </g>
    </svg>